<svg width="1024" height="1024" xmlns="http://www.w3.org/2000/svg" stroke="none">
 <g stroke="none">
  <title stroke="none">Layer 1</title>
  <g id="svg_33" data-class="artery">
   <text height="100" width="100" id="svg_25" x="0" y="0">
    <textPath fill="#ff0000" font-family="sans-serif" font-size="6" id="svg_24" href="#svg_26">external carotid artery</textPath>
   </text>
   <path stroke-opacity="0" fill-opacity="0" id="svg_26" d="m771.01044,670.36456c0,0 -5,-2.5 -5.625,-8.125c-0.625,-5.625 0,-8.75 1.25,-12.5c1.25,-3.75 2.5,-5.625 5,-5.625c2.5,0 5.625,-3.125 9.375,0c3.75,3.125 7.5,1.875 9.375,6.25c1.875,4.375 3.125,6.25 3.75,9.375c0.625,3.125 0.625,6.875 0.23956,6.63544" stroke="#0f0f00" fill="#7f7f00"/>
  </g>
  <g id="svg_39" transform="rotate(-20.5744 809.85 527.528)">
   <text x="0" y="0" height="100" width="100" id="svg_4" transform="rotate(4.9495 811.094 512.521)">
    <textPath fill="#840505" font-size="12" id="svg_3" href="#svg_9">Masseter(deep part)</textPath>
   </text>
   <path fill-opacity="0" id="svg_9" d="m797.24052,459.94394l4.20084,31.61736l4.39958,26.69132l11.33622,39.36926l4.59199,27.75399l-9.39958,10.30868" stroke-opacity="0" stroke="#000" fill="#000000" transform="rotate(7.33019 809.506 527.815)"/>
  </g>
  <g transform="rotate(-10.0812 840.777 498.852)" id="svg_36">
   <text x="0" y="0" height="100" width="100" id="svg_27">
    <textPath fill="#840505" font-size="11" id="svg_14" href="#svg_28">Masseter(superficial part)</textPath>
   </text>
   <path transform="rotate(-1.319 835.97 499.277)" fill-opacity="0" id="svg_28" d="m846.97126,423.77718l2,39c0,0 -3,33 -3,37c0,4 -5,37 -5,37c0,0 -8,23 -8,24c0,1 -10,14 -10,14" stroke-opacity="0" stroke="#000" fill="#000000"/>
  </g>
 </g>
</svg>